<svg xmlns="http://www.w3.org/2000/svg" viewBox="0 0 1120.893 402.848"><g style="fill:#fff;fill-opacity:1"><g aria-label="ARTIFACTER" style="font-weight:700;font-size:85.3333px;font-family:SDK_JP_Web;-inkscape-font-specification:&quot;SDK_JP_Web Bold&quot;;letter-spacing:30px;stroke-width:.944882;stroke-linejoin:bevel;paint-order:stroke fill markers"><path d="M165.564 331.427h8.875q2.389-.17 3.072 1.963 22.016 63.83 22.016 64.768 0 .683-.683.683h-3.67q-10.325 0-15.189-12.374-1.792-4.778-1.962-5.29h-22.187q-.17.426-4.864 14.933-.597 1.11-2.304 1.877-2.987 1.195-6.997.854-.683 0-.683-.683 2.73-9.813 21.504-64.768.853-2.048 3.072-1.963zm1.707 14.934-8.79 26.624h17.152v-.342l-8.021-26.282zM233.11 331.257h27.563q21.419.682 23.296 17.834 1.366 15.019-11.178 19.03v.34q3.328 0 9.301 15.532 5.632 11.52 13.141 13.397v.683q-.085.597-1.109 1.024h-7.083q-15.104 0-20.224-14.08-5.12-14.763-9.642-14.763h-4.95l-.085.341v15.787q0 10.837-13.824 12.97-.683 0-.683-.682v-55.125q0-7.51-5.973-9.728v-1.195q.256-1.024 1.45-1.365zm19.03 8.192v21.845h6.144q10.837 0 10.837-11.605-1.194-10.24-8.789-10.24zM373.703 331.342q.597.085.853.597l2.133 9.216q-.17 1.195-1.194 1.195-1.195-2.645-5.12-2.901h-14.08v48.213q.341 6.315-5.291 8.875-5.632 2.645-10.24 2.986l-.768-1.024v-59.05h-14.25q-3.67.17-4.78 2.9h-.426q-.939-.255-1.11-1.45l1.451-9.045q.171-.512.683-.512zm-32.939 68.181q-.768 0-.768-1.11 0-1.108.768-1.108.683 0 .683 1.109 0 1.11-.683 1.11zM414.113 331h24.406q1.45.513 1.792 1.793v.34q-6.06 3.67-6.06 8.79v46.166q0 5.12 6.06 8.789v.341q-.256 1.45-1.792 1.707h-24.406q-1.706-.256-1.792-1.707v-.341q6.144-3.67 6.144-8.79v-46.165q0-5.12-6.144-8.789v-.341q.342-1.28 1.792-1.792zM477.65 330.915h42.154q1.536.086 1.963 1.28 1.194 7.424 1.62 9.558.086 1.621-1.364 1.962-1.878-4.096-7.51-4.266h-19.456v19.968h23.382q.682.085.682.682v6.742q0 .768-.682.768h-23.382v18.432q0 10.922-13.568 13.14h-.341q-.768 0-.768-.682v-56.917q-.17-5.973-5.888-8.875 0-1.792 3.157-1.792zM573.014 331.427h8.875q2.39-.17 3.072 1.963 22.016 63.83 22.016 64.768 0 .683-.683.683h-3.669q-10.325 0-15.19-12.374-1.791-4.778-1.962-5.29h-22.187q-.17.426-4.864 14.933-.597 1.11-2.304 1.877-2.986 1.195-6.997.854-.683 0-.683-.683 2.731-9.813 21.504-64.768.854-2.048 3.072-1.963zm1.707 14.934-8.79 26.624h17.153v-.342l-8.022-26.282zM694.065 330.489q.853-.256 1.195.682l3.157 18.944q.256 1.792-1.45 1.792h-.171l-3.328-.085q-1.195-.085-1.45-1.195-6.316-10.837-16.982-11.52-11.008 0-15.616 11.35-2.475 6.997-2.475 14.592 0 22.272 14.165 25.856 1.451.341 2.816.341h3.243q8.533 0 18.09-8.619 1.025-.768 1.793 0l2.816 2.304q.768.512.597 1.451-3.67 6.4-11.35 10.41-6.911 2.987-14.847 2.987-27.478-.256-32.598-26.453-.682-3.584-.682-10.07 0-20.906 19.114-29.78Q665.905 331 674.268 331q7.68 0 17.066 3.84 2.304-1.024 2.731-4.352zM788.236 331.342q.597.085.853.597l2.133 9.216q-.17 1.195-1.194 1.195-1.195-2.645-5.12-2.901h-14.08v48.213q.341 6.315-5.29 8.875-5.633 2.645-10.24 2.986l-.769-1.024v-59.05h-14.25q-3.67.17-4.78 2.9h-.426q-.939-.255-1.11-1.45l1.451-9.045q.171-.512.683-.512zm-32.939 68.181q-.768 0-.768-1.11 0-1.108.768-1.108.683 0 .683 1.109 0 1.11-.683 1.11zM829.244 331h43.776q1.109 0 1.792.683l1.962 9.046v1.109q-.341 1.024-1.28 1.11-2.389-3.414-6.997-3.243h-21.333v19.2h24.149q1.024.34 1.024 1.45v5.718q-.085 1.28-1.365 1.45-21.504.086-23.808.086v20.224h20.394q7.254-.427 7.254-3.328h1.024q.853.34.938 1.45l-1.28 11.776q-.426 1.11-1.536 1.024h-40.192q-1.45-.768-1.365-2.986v-54.272q0-5.291-5.973-8.363.768-2.133 2.816-2.133zM917.782 331.257h27.563q21.419.682 23.296 17.834 1.365 15.019-11.179 19.03v.34q3.328 0 9.302 15.532 5.632 11.52 13.141 13.397v.683q-.085.597-1.11 1.024h-7.082q-15.104 0-20.224-14.08-5.12-14.763-9.643-14.763h-4.949l-.085.341v15.787q0 10.837-13.824 12.97-.683 0-.683-.682v-55.125q0-7.51-5.973-9.728v-1.195q.256-1.024 1.45-1.365zm19.03 8.192v21.845h6.144q10.837 0 10.837-11.605-1.195-10.24-8.79-10.24z" style="font-weight:400;-inkscape-font-specification:SDK_JP_Web"/></g></g><g style="fill:#fff;fill-opacity:1"><path d="M107.161 77.11a105.694 105.694 0 0 0-21.233 2.008c-24.27 4.88-46.15 19.31-61.24 38.8-8.34 10.82-14.8 23.08-18.93 36.1-4.29 13.52-6.23 27.79-5.66 41.96.33 7.53 1.24 15.04 2.95 22.38 1.25 5.51 2.9 10.92 4.9 16.21l.11.05c2.86 7.86 6.8 15.3 11.32 22.32.67.66 1 2.21 2.1 2.18l-.5.12c6.18 8.98 13.72 17 22.2 23.86l.29.01c7.91 6.57 17.02 11.66 26.59 15.4 13.54 5.38 28.25 7.41 42.76 6.67 23.57-.88 47.75-5.51 68.12-17.89 6.24-3.22 11.86-7.8 16.74-12.87.03-5.02.03-10.04.08-15.05-.01-7.88.13-15.76-.07-23.63.3-5.15-.51-10.51 1.57-15.4l-.18.24c2.11-3.95 5.42-7.27 9.46-9.22 3.67-2.02 8.31-2.05 11.58-4.78-.03-.55-.1-1.65-.13-2.2-2.72-.38-5.46-.23-8.19-.24-33.32.02-66.64-.01-99.96.02-1.98-.51-4.46 1.34-2.93 3.39 2.36 2.28 5.91 2.6 8.92 3.58 9 1.87 17.75 6.06 23.44 13.48 1.79 3.42 3.59 7.01 3.59 10.97.12 11.73-.1 23.45.08 35.18-.43 6.02-.46 12.27-3.05 17.85-4.72 5.17-12.43 2.97-18.59 3.29-10.62-1.58-20.62-6.36-28.62-13.5-7.44-6.59-13.44-14.69-18.11-23.44-4.16-7.94-7.33-16.36-9.65-25.01-1.22-5.04-2.2-10.13-3.06-15.24-1.06-9.12-1.6-18.3-1.19-27.47.67-11.52 2.55-22.96 5.77-34.04l.14-.01c3.59-12.09 9.23-23.57 16.74-33.71 4.86-5.94 10.24-11.55 16.71-15.75 10.65-7.23 24.26-10.27 36.87-7.19 13.61 3.13 24.9 12.44 33.29 23.28 5.45 7.31 9.82 15.37 13.23 23.81 1.5 3.94 2.92 7.91 4.02 11.99.76 2.49 1.09 5.33 3.12 7.19 3.35-6.26 2.65-13.66 3.42-20.51.38-6.88.55-13.77.56-20.65-.25-6.93.13-14.09-2.11-20.75-12.44.32-24.25-4.2-35-10.09-15.884-8.883-34.068-13.588-52.267-13.697zM211.676 148.843a32.381 32.381 0 0 0-1.718.016c4.42 4.39 10.4 7.39 13.41 13.09 4.26 8.12 4.28 17.59 4.12 26.53.11 7.58.01 15.16.04 22.74.02 8.15 0 16.289 0 24.429 4.22-4.14 8.75-7.98 13.55-11.44 6.65-4.77 13.74-8.89 21.12-12.42-.01-7.45-.01-14.9-.01-22.34.1-4.26-.2-8.53.14-12.78.5-4 4.46-6.95 8.44-6.62 8.31.03 16.62-.08 24.93.07 6.93.21 13.43 3.32 18.63 7.77 6.34 5.94 10.71 13.68 13.46 21.86.27-.32.81-.98 1.08-1.3.99-6.95-.21-14.05-1.28-20.94a151 151 0 0 0-5.52-19.36c-24.15.02-48.38.27-72.42-2.42-11.05-1.5-21.97-3.87-32.86-6.27-1.68-.405-3.394-.584-5.112-.615z" style="fill:#fff;fill-opacity:1"/><path d="M305.145 207.157c-2.469.008-4.972.304-7.347.5-24.07 3.13-47.22 13.21-66.06 28.5-6.33 5.53-12.06 11.741-17 18.551-4.09 5.87-7.82 12.02-10.67 18.59 6.95-4.61 14.21-8.73 21.64-12.53.6-.27 1.21-.54 1.83-.8-.01 1.21-.01 2.42-.01 3.64.48 6.14-.82 12.17-2.87 17.9l.28.67-.83.25c-4.28 8.55-11.97 14.5-18.93 20.74 5.32.16 10.42-1.54 15.59-2.53 13.82-2.96 27.98-3.95 42.09-3.95 21.75.02 43.51-.04 65.26.03 2.75-7.06 4.81-14.37 6.4-21.77 1-5.75 1.58-11.58 1.54-17.41-.14-1.49.06-3.66-1.71-4.21-2.7 7.83-7.05 15.1-12.9 20.97-6.09 5.88-14.25 9.69-22.76 9.87-9.65.06-19.3.05-28.94.01-2.39.12-4.29-1.44-6.04-2.83-.78-1.84-1.65-3.72-1.52-5.76-.04-5.2.02-10.39-.02-15.58.06-4.42.01-8.84.02-13.25 1.54-.4 3.08-.79 4.63-1.17 3.36-.75 6.74-1.45 10.13-2.1 17.44-3.09 35.16-4.47 52.86-4.56 1.02-.07 2.02-.24 3.02-.5-1.08-2.98-2.97-5.64-5.66-7.37-3.21-1.89-6.99-2.65-10.09-4.71-4.87-4.16-4.04-11.36-2.91-16.97-2.728-1.765-5.848-2.232-9.023-2.221zM461.343 158.122c-10.233 0-20.464.041-30.694.126-1.54 3.02 2.749 3.77 4.589 4.89 7.35 3.2 9.24 12.1 8.57 19.35.03 4.56-.05 9.12.03 13.68-.01 12.31-.07 24.62-.02 36.93.03 3.66.01 7.32-.01 10.98-1.53-1.94-3.06-3.89-4.59-5.83-5.95-7.75-12.06-15.39-18.02-23.13-3.71-4.71-7.4-9.44-11.08-14.16-3.41-4.37-6.83-8.72-10.22-13.09-7.72-9.92-15.49-19.79-23.21-29.71-12.37.05-24.75-.15-37.12.09l-.04 2.28c3.04 2.43 7.41 3.11 9.66 6.59 4.86 6.04 3.24 14.13 3.56 21.26-.01 6.36-.09 12.71-.01 19.06-.05 5.7.01 11.41-.03 17.11.04 5.56-.01 11.13.02 16.69-.04 8.12.05 16.24-.05 24.36-.11 5.99.7 12.13-1.06 17.96-1.17 2.26-2.39 4.61-4.41 6.24-2.1 1.81-4.88 2.48-7.17 4-1.14.58-.63 1.97-.59 2.95 20.47-.1 40.95.1 61.42-.1.68-3.24-3.01-3.86-5.11-5.06-3.96-1.67-6.33-5.53-7.73-9.41-1.25-6.77-.36-13.68-.69-20.51.08-6.9.01-13.8.01-20.7.06-4.43-.03-8.86.04-13.29-.03-3.74-.02-7.48-.03-11.21.04-5.07-.02-10.14.02-15.21l-.12-2.04c.13-.06.38-.19.5-.26 2.02 2.98 4.33 5.75 6.52 8.6 2.54 3.21 5.03 6.46 7.58 9.66 4.66 5.98 9.29 11.98 14 17.92 3.93 5.09 7.88 10.17 11.86 15.22 6.03 7.56 11.79 15.37 17.94 22.83 5.01 6.71 10.29 13.21 15.36 19.87 2.88 3.67 6.05 7.11 9.47 10.29 5.31 4.49 11.86 7.88 18.88 8.35-.96-3.37-3.38-6.03-4.89-9.14l-.68-.29.34-.4c-1.24-4.35-3.06-8.54-3.92-13-.69-3.91-1.2-7.86-1.47-11.82-.44-7.92-.23-15.86-.3-23.79.04-8.79-.01-17.58-.02-26.38.11-8.21.06-41.59-.03-46.9-.25-6.38 2.04-13.69 8.2-16.62 2.15-1.28 5.84-1.8 5.44-5.1-10.23-.09-20.463-.134-30.695-.136zM555.466 128.392c-2.847.017-5.696.226-8.538.686-13.99 1.98-27.37 9.37-35.58 21.01-2.99 4.41-5.26 9.28-6.59 14.43l.05.11c-2.48 9.91-1.17 20.45 2.2 29.99l.11.02c2.34 6.49 6.14 12.39 10.83 17.44l.15-.01c5.96 5.9 13.09 10.52 20.03 15.13 14.22 10.28 29.19 19.5 43.09 30.22 3.87 3.58 6.6 8.3 7.4 13.54.11 4.54-.43 9.09-2.1 13.33-2.33 5.01-6.38 9.18-11.43 11.45-5.81 2.92-12.48 2.66-18.76 1.92-2.99-.49-5.95-1.14-8.86-1.93-5.73-1.8-11.12-4.5-16.09-7.83-1.72-1.34-3.42-2.68-5.09-4.05l-2.36-2.08c-1.53-1.57-3.05-3.14-4.55-4.74-3.13-3.62-6-7.45-8.6-11.47-4.18-6.07-6.78-13.14-11.29-18.98-1.72 6.14-1.67 12.59-1.77 18.91.04 1.93.04 3.87.23 5.8.31 5.69 1.06 11.36 2.32 16.92 1.75 7.03 4.42 14.08 9.49 19.41 7.41-4.49 16.83-3.88 24.74-1.08 12.98 4.16 26.85 5.1 40.37 3.74 6.28-.61 12.43-2.17 18.34-4.38 8.01-3.36 15.15-8.8 20.13-15.96 4.48-6.66 7.26-14.43 8.23-22.38l.13.08c.57-4.37.75-8.78.73-13.18-.29-9.36-2.64-18.73-7.58-26.75-3.06-4.82-6.9-9.06-10.96-13.04-10.05-8.4-21.16-15.4-31.88-22.9-9.73-6.72-19.69-13.11-29.21-20.13-5.69-4.6-9.75-11.71-8.42-19.23.98-4.14 3.02-8.21 6.66-10.62 6.33-4.32 14.46-4.44 21.81-3.67 9.39.99 18.25 5.74 24.23 13.06l.1-.01c3.87 4.7 6.09 10.48 9.64 15.36 6.9 5.01 14.19 10.1 22.47 12.47.13-4.18-1.57-8.05-2.96-11.89-2.2-5.66-4.45-11.31-6.97-16.83-3.12-6.46-6.77-12.66-10.7-18.65-5.63 2.71-11.96 1.53-17.78.21-8.332-1.822-16.868-3.498-25.412-3.446zM689.188 158.098c-20.5.22-41-.19-61.49.2-.19 3.75 4.3 3.97 6.64 5.69 6.08 3.75 7.49 11.55 6.96 18.16.08 5.49-.09 10.98.09 16.48l.15.63c-.27 2.18-.29 4.39-.2 6.59-.03 8.45-.07 16.9-.02 25.36-.02 3.43-.22 6.87.34 10.29l-.08-.66.4 1.75c-.13.18-.39.56-.53.75-.34 6.88-.08 13.78-.15 20.67.01 5.02 0 10.05-.04 15.09-.21 5.11-1.92 9.92-3.74 14.64l.2.66-.61.1c-3.69 6.62-9.08 11.96-14.53 17.12 16.97.42 31.44-10.02 47.71-13.18 6.27-1.02 12.58-1.85 18.96-1.75 1.12-3.15-2.73-3.96-4.79-5.06-5.39-2.35-8.18-8.31-8.5-13.93-.03-4.97.1-9.94-.04-14.9.07-4.86.12-9.73-.05-14.58.1-4.23 3.54-8.23 7.95-8.08 14.06.02 28.12-.16 42.17.1 1.11.6 2.25 1.19 3.5 1.5 1.95 2.23 2.51 5.09 3.11 7.9l-.61.64c.12.42.36 1.28.48 1.7-.67 2.29-.3 4.72-.32 7.08.01 6.07-.13 12.15.03 18.23-.28 5.68-2.93 11.78-8.35 14.25-2.14 1.23-5.87 1.8-5.23 5.09 20.47.08 40.96.16 61.43-.03 1.3-3.02-2.57-3.73-4.46-4.82-5.4-2.21-8.27-8.01-8.79-13.56 0-4.81.09-9.63-.08-14.43.21-7.32.12-14.66-.01-21.97.24-8.31.11-16.64 0-24.94.32-11.26-.05-22.52.09-33.78.01-4.56-.26-9.39 2.02-13.54 1.57-3.35 4.57-5.77 7.99-7.09 1.59-.76 4.63-1.89 3.17-4.22-20.46-.17-40.94-.18-61.4.01-.45 3.3 3.32 3.82 5.46 5.11 5.22 2.42 7.63 8.24 8.2 13.66-.18 10.44 0 20.89-.11 31.33.12 2.59-1.45 4.72-3.1 6.55-1.65.68-3.32 1.48-5.14 1.39-13.04.02-26.07 0-39.11.01-3.39.35-6.37-1.67-8.21-4.36-1.12-5.85-.35-11.839-.58-17.739-.01-2.06-.02-4.11-.04-6.15.03-1.66.03-3.321.05-4.971-.61-7.15.749-15.979 7.829-19.569 2.1-1.37 6.66-1.941 5.38-5.421z" style="fill:#fff;fill-opacity:1"/><path d="M804.928 207.19a36.849 36.849 0 0 0-5.16.308c-1.76.15-3.29 1.04-4.77 1.9.88 4.79 1.71 10.19-.89 14.61-1.02 1.93-3.16 2.8-4.54 4.37-4.71.45-9.92 3.32-12.25 7.76-.71.85-1.21 2.9.54 2.72 14.19.14 28.39.92 42.48 2.76-.02-1.91-.01-3.81 0-5.7 0-3.28-.01-6.55 0-9.81 0-5.68-.02-11.35 0-17.02-5.077-.9-10.245-1.861-15.41-1.898zM864.888 227.089c-.02 8.69-.05 17.38-.04 26.07l.3-.54c13.95 5.58 27.41 12.4 39.97 20.66-4.34-9.97-10.49-19.091-17.64-27.251-6.53-7.41-14.25-13.7-22.59-18.94z" style="fill:#fff;fill-opacity:1"/><path d="M822.44 158.095c-6.865.007-13.725.086-20.572.353.03.49.1 1.46.13 1.94 5.38 2.86 12.17 2.82 16.83 7.19 4.5 3.42 5.95 9.26 5.3 14.66.09 14.98-.03 29.96.02 44.94.05 8.53-.14 17.06.05 25.59-.18 3.47-.06 6.94-.05 10.42-.05 5.37.09 10.75-.16 16.12-2 7.42-9.33 11.61-16.42 13.01-2.25.83-6.21.85-6.03 4.11 2.48.3 5 .33 7.51.15l2.69-.04c22.68.36 45.37.03 68.06.17 1.47-.09 4.47.45 3.83-1.99-2.77-2.2-6.55-2.28-9.76-3.5-4.71-1.41-8.82-4.52-11.36-8.71l-.78-.16.24-.76c-1.11-4.3-.78-8.75-.77-13.14-.01-7.3-.04-14.6-.01-21.9-.01-9.53.02-19.049-.031-28.569.08-10.68.02-21.36.01-32.04.26-4.78-.879-10.03 1.871-14.3 3.08-5.23 8.97-7.86 14.68-9.13 2.27-.84 6-.84 6.16-4.01-9.01-.79-18.08-.14-27.11-.35-11.43.125-22.887-.067-34.328-.054zM1120.788 89.599c-8.61.94-16.96 3.63-25.47 5.24-23.17 5.18-46.37 10.25-69.53 15.48-1.34-.01-3.68 1.849-1.83 3.009 5.42 2.01 11.77 2.52 15.91 7.07 5.6 5.16 6.27 13.14 5.92 20.28-.15 6.7-.1 13.41.01 20.11-.15 10.65-.13 21.31 0 31.97-.24 6.54-.01 13.09-.09 19.64-10.14-8.48-20.24-17.02-30.4-25.48-10.45-8.85-20.98-17.61-31.46-26.43-12.71-10.72-25.5-21.35-38.19-32.09-13.6 1.97-27.18 4.06-40.79 5.99-2.13.68-6.57-.28-6.17 3.13 3.43 3.07 8.73 2.23 12.68 4.46 6.95 3.03 10.57 10.81 9.86 18.15-.09 10.28-.09 20.57-.03 30.85-.02 8.71-.09 17.43 0 26.14-.05 8.01-.07 16.02-.02 24.03-.03 7.04-.03 14.08-.03 21.13.3 5.6-.05 11.35-2.6 16.46-2.8 5.16-7.14 9.48-12.49 11.96-2.35 1.32-5.18 1.98-7.08 3.96-.93 2.43 2.31 2.12 3.78 2.18 6.08-.13 12.18.2 18.26-.18h.57c16.02.38 32.07.05 48.11.16 8.74-.19 17.52.38 26.24-.29 1.63-1.87-1.07-3.11-2.43-3.76-5.18-2.26-10.32-5-13.88-9.53-4.2-5.32-6.15-12.14-5.55-18.89.01-5.43-.02-10.87 0-16.31.01-9.62-.01-19.25-.01-28.88.01-8.09.03-16.18 0-24.26.03-5.26-.01-10.51.01-15.76 4.36 3.6 8.62 7.3 13 10.87 6.86 5.81 13.72 11.62 20.65 17.35 12.64 10.72 25.4 21.29 38.01 32.03 0 .69-.01 2.07-.02 2.76.31 7.77 1.11 15.63 3.46 23.07a67.658 67.658 0 0 0 5.3 13.63c2.56 5.09 5.7 9.91 9.48 14.19 7.68 9.08 17.61 16.26 28.61 20.79 1.85.74 4.841 1.52 5.681-1.01.81-9.97.25-20.02.29-30.02.26-11.14-.02-22.29.08-33.43-.09-12.08.23-24.18-.2-36.24.46-14.1.159-28.24.129-42.35.22-16.07 0-32.15.101-48.22.39-11.51 8.1-21.58 17.61-27.49 1.7-1.56 5.28-2.6 4.52-5.47z" style="fill:#fff;fill-opacity:1"/></g><g style="fill:#fff;fill-opacity:1"><path d="M463.848 68.253a12.227 12.227 0 0 0-3.85.495c-19.34 4.65-38.51 10.11-57.22 16.88-13.98 5-27.62 11.16-39.97 19.45-5.02 3.38-9.89 6.98-14.46 10.95-1.08.95-2.27 1.95-2.57 3.45 1.46 9.02 10.05 13.88 17.47 17.65 12.19 5.61 25.93 8.83 39.37 7.31-4-3.4-9.56-3.94-13.79-6.95-1.72-1.29-1.76-3.61-2.22-5.5-4.13.82-8.05 2.4-12.14 3.35 3.77-2.32 7.87-4.03 11.79-6.07 20.96-8.99 43.62-12.86 66.09-15.94 15.66-1.71 31.65-2.25 46.8-6.98-1.23-3.4-1.85-8.39-6.24-8.92-9.44-4.93-13.96-15.09-19.4-23.67-1.995-3.465-5.78-5.388-9.66-5.505zM657.756 68.266c-2.998-.046-5.993.836-8.138 3.022-3.03 3.16-4.79 7.24-7.11 10.89-3.32 5.78-7.61 11.14-13.29 14.74-1.46.96-3.68.78-4.55 2.53-1.3 2.14-2.13 4.56-2.58 7.01 15.17 4.52 31.07 5 46.68 6.95 24.76 3.12 49.8 7.66 72.36 18.81 1.91 1.04 3.86 2.08 5.77 3.15-4.11-1.06-8.15-2.4-12.22-3.58-.67 2.04-.74 4.61-2.74 5.89-4.17 2.81-9.62 3.33-13.4 6.74 6.42.86 12.93.26 19.27-.93 12.34-2.4 24.92-6.99 33.93-16.09l.11.04c1.98-2.67 3.06-5.82 3.46-9.11-14.44-13.37-31.9-23.18-50.21-30.19-20.61-7.95-41.89-14.04-63.33-19.27a15.491 15.491 0 0 0-4.012-.602zM560.57.001c-.868-.032-1.733.512-1.893 1.707-3.56 11.73-6.728 23.86-13.448 34.28-2.42 3.84-5.911 6.89-9.851 9.1-9.52 5.44-20.14 8.45-30.54 11.71-1.64.43-2.97 1.5-4.15 2.66 1.2 1 2.45 2.02 4 2.48 11.18 3.57 22.76 6.69 32.77 13.06 5.93 3.66 9.4 9.96 12.3 16.08h.09c3.71 8.54 6.24 17.5 8.96 26.38.77 2.56 3.84 1.07 3.89-1.04 2.28-8.52 5.16-16.85 8.33-25.06l-.22-.59.69-.2c1.88-3.22 3.36-6.69 5.72-9.62 2.89-3.99 7.17-6.59 11.43-8.88 1.55-.74 3.12-1.48 4.69-2.21 7.45-3.09 15.16-5.47 22.86-7.84 1.52-.67 4.05-1.13 3.61-3.34-1.4-1.17-3.14-1.79-4.84-2.32-10.12-3.09-20.39-6.15-29.59-11.48-3.95-2.24-7.35-5.4-9.73-9.26-6.52-10.34-9.71-22.27-13.17-33.86-.17-1.115-1.04-1.724-1.908-1.757z" style="fill:#fff;fill-opacity:1"/></g></svg>