<svg xmlns="http://www.w3.org/2000/svg"
    xmlns:xlink="http://www.w3.org/1999/xlink" viewBox="0 0 14 13.95">
    <defs>
        <linearGradient id="a">
            <stop offset="0" style="stop-color:#4facfe;stop-opacity:1"/>
            <stop offset="1" style="stop-color:#00f2fe;stop-opacity:1"/>
        </linearGradient>
        <linearGradient xlink:href="#a" id="b" x1="-.001" x2="14" y1="6.974" y2="6.974" gradientUnits="userSpaceOnUse"/>
    </defs>
    <g data-name="Layer 2" style="fill:url(#b);fill-opacity:1" transform="translate(1 .998) scale(.85708)">
        <g data-name="Elements" style="fill:url(#b);fill-opacity:1">
            <path fill="#fff" d="m2.922 12.219.253.13a7.943 7.943 0 0 0 3.891.963 3.753 3.753 0 0 0 .486-7.464 3.6 3.6 0 0 0-1.691.132.938.938 0 0 1-.716-1.732 4.3 4.3 0 0 1 1.481-.366 4.912 4.912 0 0 1 5.048 3.446 4.933 4.933 0 0 1-2.517 5.764c4.218-1.543 4.723-7.809.812-10.017a5.342 5.342 0 0 0-3.437-.829 5.506 5.506 0 0 0-3.649 1.775 6.606 6.606 0 0 0-.417.524.873.873 0 0 1-.927.337.929.929 0 0 1-.781-.638.881.881 0 0 1 .1-.684 6.158 6.158 0 0 1 1.363-1.721A7.091 7.091 0 0 1 6.135.055a6.933 6.933 0 0 1 6.848 3.359c2.683 4.1-.263 9.987-5.094 10.472a6.838 6.838 0 0 1-3.241-.343 3.994 3.994 0 0 1-1.726-1.324Zm5.516-.119a2.044 2.044 0 0 1-2.35.064 1.5 1.5 0 0 1-.007-2.613.949.949 0 0 1 1.433.505c.77 2.06 2.637.147 1.424-1.246a2.385 2.385 0 0 0-2.17-.95 2.486 2.486 0 1 0 .784 4.891A2.393 2.393 0 0 0 9.073 11.6c-.211.166-.41.351-.635.5zM2.21 9.495a.663.663 0 1 0 .663.663.663.663 0 0 0-.663-.663ZM.958 6.107a.958.958 0 1 0 .957.957.958.958 0 0 0-.957-.957Z" data-name="Hydro" style="fill:url(#b);fill-opacity:1"/>
        </g>
    </g>
</svg>